<!-- Generator: Adobe Illustrator 17.0.0, SVG Export Plug-In  -->
<svg version="1.1"
     xmlns="http://www.w3.org/2000/svg" xmlns:xlink="http://www.w3.org/1999/xlink" xmlns:a="http://ns.adobe.com/AdobeSVGViewerExtensions/3.0/"
     x="0px" y="0px" width="260.81px" height="48.79px" viewBox="0 0 260.81 48.79" enable-background="new 0 0 260.81 48.79"
     xml:space="preserve">
<defs>
</defs>
<g>
    <path fill="#FFFFFF" d="M68.235,30.782v10.592h-6.016V14.974h6.016v10.527h8.512V14.974h6.016v26.399h-6.016V30.782H68.235z"/>
    <path fill="#FFFFFF" d="M103.211,33.95H91.307c0,1.152,0.373,2.006,1.12,2.561c0.747,0.555,1.557,0.831,2.432,0.831
        c0.917,0,1.643-0.122,2.176-0.367c0.533-0.245,1.141-0.73,1.824-1.456l4.096,2.048c-1.707,2.858-4.544,4.288-8.512,4.288
        c-2.475,0-4.597-0.849-6.368-2.544c-1.771-1.696-2.656-3.739-2.656-6.128c0-2.39,0.885-4.437,2.656-6.145
        c1.771-1.706,3.893-2.56,6.368-2.56c2.603,0,4.72,0.752,6.352,2.256c1.632,1.504,2.448,3.653,2.448,6.448
        C103.243,33.566,103.232,33.822,103.211,33.95z M91.467,30.814h6.24c-0.128-0.854-0.464-1.509-1.008-1.968
        s-1.243-0.688-2.096-0.688c-0.939,0-1.686,0.245-2.24,0.736C91.808,29.385,91.51,30.025,91.467,30.814z"/>
    <path fill="#FFFFFF" d="M106.859,39.341c-1.536-1.674-2.304-3.728-2.304-6.159c0-2.433,0.768-4.491,2.304-6.177
        c1.536-1.685,3.488-2.527,5.856-2.527c2.176,0,3.968,0.683,5.376,2.048v-1.568h5.664v16.416h-5.6v-1.855h-0.064
        c-1.408,1.558-3.2,2.336-5.376,2.336C110.347,41.854,108.395,41.017,106.859,39.341z M111.675,30.398
        c-0.736,0.726-1.104,1.653-1.104,2.784s0.352,2.053,1.056,2.768s1.632,1.072,2.784,1.072c1.109,0,2.021-0.362,2.736-1.088
        c0.714-0.726,1.072-1.643,1.072-2.752c0-1.131-0.368-2.059-1.104-2.784c-0.736-0.726-1.637-1.088-2.704-1.088
        C113.323,29.31,112.411,29.673,111.675,30.398z"/>
    <path fill="#FFFFFF" d="M127.595,41.374v-27.52h5.664v27.52H127.595z"/>
    <path fill="#FFFFFF" d="M138.059,24.958v-6.111h5.664v6.111h3.456v4.32h-3.456v5.216c0,1.515,0.427,2.272,1.28,2.272
        c0.213,0,0.437-0.043,0.672-0.128c0.234-0.085,0.416-0.171,0.544-0.257l0.192-0.128l1.408,4.576
        c-1.216,0.683-2.603,1.024-4.16,1.024c-1.067,0-1.984-0.188-2.752-0.561s-1.35-0.874-1.744-1.504
        c-0.395-0.629-0.677-1.29-0.848-1.983c-0.171-0.693-0.256-1.435-0.256-2.225v-6.304h-2.368v-4.32H138.059z"/>
    <path fill="#FFFFFF" d="M149.739,41.374v-27.52h5.664v12.832h0.064c1.472-1.473,3.04-2.208,4.704-2.208
        c0.811,0,1.616,0.106,2.416,0.319c0.8,0.214,1.568,0.544,2.304,0.992c0.736,0.448,1.333,1.083,1.792,1.904
        c0.458,0.821,0.688,1.776,0.688,2.864v10.815h-5.664v-9.279c0-0.854-0.272-1.601-0.816-2.24c-0.544-0.641-1.253-0.96-2.128-0.96
        c-0.854,0-1.627,0.331-2.32,0.992c-0.693,0.661-1.04,1.397-1.04,2.208v9.279H149.739z"/>
    <path fill="#FFFFFF" d="M201.451,41.374l-1.248-15.647h-0.16l-5.408,15.487h-3.584l-5.408-15.487h-0.16l-1.248,15.647h-6.016
        l2.368-26.399h6.399l5.856,15.231l5.856-15.231h6.399l2.368,26.399H201.451z"/>
    <path fill="#FFFFFF" d="M211.018,39.341c-1.536-1.674-2.304-3.728-2.304-6.159c0-2.433,0.768-4.491,2.304-6.177
        c1.536-1.685,3.488-2.527,5.856-2.527c2.176,0,3.968,0.683,5.376,2.048v-1.568h5.664v16.416h-5.601v-1.855h-0.063
        c-1.408,1.558-3.2,2.336-5.376,2.336C214.507,41.854,212.555,41.017,211.018,39.341z M215.835,30.398
        c-0.736,0.726-1.104,1.653-1.104,2.784s0.353,2.053,1.057,2.768s1.632,1.072,2.783,1.072c1.109,0,2.021-0.362,2.736-1.088
        s1.072-1.643,1.072-2.752c0-1.131-0.368-2.059-1.104-2.784c-0.735-0.726-1.637-1.088-2.704-1.088
        C217.482,29.31,216.57,29.673,215.835,30.398z"/>
    <path fill="#FFFFFF" d="M232.491,24.958v-6.111h5.664v6.111h3.456v4.32h-3.456v5.216c0,1.515,0.427,2.272,1.28,2.272
        c0.213,0,0.437-0.043,0.672-0.128c0.234-0.085,0.416-0.171,0.544-0.257l0.191-0.128l1.408,4.576
        c-1.216,0.683-2.603,1.024-4.16,1.024c-1.066,0-1.983-0.188-2.752-0.561c-0.768-0.373-1.35-0.874-1.744-1.504
        c-0.395-0.629-0.677-1.29-0.848-1.983s-0.256-1.435-0.256-2.225v-6.304h-2.368v-4.32H232.491z"/>
    <path fill="#FFFFFF" d="M260.778,33.95h-11.903c0,1.152,0.373,2.006,1.12,2.561c0.746,0.555,1.557,0.831,2.432,0.831
        c0.917,0,1.643-0.122,2.176-0.367s1.142-0.73,1.824-1.456l4.096,2.048c-1.707,2.858-4.544,4.288-8.512,4.288
        c-2.475,0-4.598-0.849-6.368-2.544c-1.771-1.696-2.656-3.739-2.656-6.128c0-2.39,0.886-4.437,2.656-6.145
        c1.771-1.706,3.894-2.56,6.368-2.56c2.603,0,4.72,0.752,6.352,2.256c1.633,1.504,2.448,3.653,2.448,6.448
        C260.81,33.566,260.8,33.822,260.778,33.95z M249.035,30.814h6.239c-0.128-0.854-0.464-1.509-1.008-1.968s-1.243-0.688-2.096-0.688
        c-0.939,0-1.686,0.245-2.24,0.736S249.077,30.025,249.035,30.814z"/>
</g>
<path fill="#FFFFFF" d="M52.613,13.394c-0.255,16.336-27.566,31.14-27.566,31.14S0.798,32.537,0.033,14.925
    C-0.445,3.928,4.372,0.887,11.774,0.631c7.797-0.269,14.294,9.699,14.294,9.699s5.213-9.374,13.017-10.21
    C46.232-0.645,52.79,2.045,52.613,13.394z"/>
<path fill="#FFFFFF" d="M29.622,43.466c-2.167,1.365-3.649,2.178-3.9,2.314l-0.646,0.35l-0.658-0.325
    c-0.128-0.064-1.736-0.866-4.095-2.32c-2.381,0.514-3.961,1.406-3.961,2.422c0,1.593,3.875,2.885,8.654,2.885
    c4.78,0,8.654-1.292,8.654-2.885C33.672,44.877,32.052,43.977,29.622,43.466z"/>
</svg>
