<!-- Generator: Adobe Illustrator 17.0.0, SVG Export Plug-In  -->
<svg version="1.1"
     xmlns="http://www.w3.org/2000/svg" xmlns:xlink="http://www.w3.org/1999/xlink" xmlns:a="http://ns.adobe.com/AdobeSVGViewerExtensions/3.0/"
     x="0px" y="0px" width="264.283px" height="264.283px" viewBox="0 0 264.283 264.283" enable-background="new 0 0 264.283 264.283"
     xml:space="preserve">
<defs>
</defs>
<rect fill="#FFFFFF" width="264.283" height="264.283"/>
<path fill="#F7F7F7" d="M114.11,54.154c-0.346,22.154-37.384,42.23-37.384,42.23S43.842,80.115,42.803,56.231
    c-0.648-14.914,5.885-19.038,15.923-19.384C69.3,36.482,78.11,50,78.11,50s7.069-12.712,17.654-13.846
    C105.456,35.116,114.35,38.764,114.11,54.154z"/>
<path fill="#F7F7F7" d="M218.11,177.654c-0.346,22.154-37.384,42.23-37.384,42.23s-32.884-16.269-33.923-40.153
    c-0.648-14.914,5.885-19.038,15.923-19.384C173.3,159.982,182.11,173.5,182.11,173.5s7.069-12.712,17.654-13.846
    C209.456,158.616,218.35,162.264,218.11,177.654z"/>
</svg>
